<svg xmlns="http://www.w3.org/2000/svg" width="800" height="907" viewBox="0 0 800 907">
  <metadata><?xpacket begin="﻿" id="W5M0MpCehiHzreSzNTczkc9d"?>
<x:xmpmeta xmlns:x="adobe:ns:meta/" x:xmptk="Adobe XMP Core 5.6-c138 79.159824, 2016/09/14-01:09:01        ">
   <rdf:RDF xmlns:rdf="http://www.w3.org/1999/02/22-rdf-syntax-ns#">
      <rdf:Description rdf:about=""/>
   </rdf:RDF>
</x:xmpmeta>
                                                                                                    
                                                                                                    
                                                                                                    
                                                                                                    
                                                                                                    
                                                                                                    
                                                                                                    
                                                                                                    
                                                                                                    
                                                                                                    
                                                                                                    
                                                                                                    
                                                                                                    
                                                                                                    
                                                                                                    
                                                                                                    
                                                                                                    
                                                                                                    
                                                                                                    
                                                                                                    
                           
<?xpacket end="w"?></metadata>
<defs>
    <style>
      .cls-1 {
        fill-rule: evenodd;
      }
    </style>
  </defs>
  <path id="Заливка_цветом_3" data-name="Заливка цветом 3" class="cls-1" d="M386,52c10.181-.1,28.086,1.016,34,2h27c14.037,3.171,32.657,2.733,43,6,21.782,6.88,36.65,56.848,43,81,2.111,8.027-4.494,13.91-3,18,2.975,2.193,5.9,1.429,10,3,14.292,5.47,31.87,12.223,46,18,8.532,3.488,16.7,3.45,25,7,11,4.7,25.263,14.664,32,24,3.709,5.14,5.365,10.7,9,16,4.44,6.469,11.888,12.1,16,19,6.135,10.288,5.68,22.975,9,36,4.322,16.956,6.7,36.647,11,54,2.317,9.351.939,19.292,3,28q0.5,15.5,1,31c2.554,11.339,1.152,24.255,4,37,2.382,10.657.314,23.861,3,36,2.419,10.934,1.82,23.985,2,37v60c0,39.866,4.325,83.229-2,113-3.557,16.743,1.289,40.271,1,53-0.046,2.047,1.965,8.258,1,12-2.172,8.423-7.462,14.721-9,23q0.5,6,1,12c0.589,30.59,6.075,48.118-18,56l-17,1c-32.22,7.106-26.5-47.467-34-70-1.948-5.851-6.27-12.153-8-19-1.017-4.027.472-10.52,1-13q-1-19-2-38c-5.073-21.044-8.562-43.581-14-66q-0.5-9.5-1-19c-4.284-18.719-3.634-39.485-8-58V527c-3.17-22.911-.7-55.608-14-72,1.346,30.733-1,60.853-1,92,0,19.917,2.869,45-1,63q0.5,75.993,1,152c0,23.605-.516,48.932,4,70,2.626,12.249-.306,25.2-8,28-7.068,5.428-21.213,3.355-33,4-17.964.983-37.618-.008-57,2-15.145,1.569-40.21.486-56-3l-38,1c-31.671,0-72.658-1.819-93,2-9.33,1.751-55.007-2.258-60-5-2.8-1.537-4.718-5.777-7-8-0.041-66.8,2-129.965,2-195,0-49.133-2.053-99.136-2-145h-1v2c-1.533,2.649-.075,7.136-1,11-2.262,9.452-3.75,20.21-7,30-2.326,7.006-5.969,15.542-8,23-4.036,14.826-1.7,28.912-6,43-2.564,8.4-6.641,18.611-9,27q-0.5,11.5-1,23c-2.709,10.854-6.4,23-9,33-2.062,7.92,1.864,23.064,2,29,0.345,15.029-11.324,27.552-16,38-3.1,6.93-1.054,14.132-3,22-2.668,10.789-6.683,22.187-7,35-1.766.961-1.68,1.257-4,2-10.194,8.31-49.96,2.648-54-6-3.047-4.588-.988-41.443,1-50,2.709-11.664-6.739-18.366-9-27V707c1.946-6.99,8.475-16.128,6-27-3.874-17.015,1.473-23.255,5-36q-0.5-13-1-26a440.808,440.808,0,0,0,8-44c1.6-12.778,2.381-35.1,6-50V499c3.5-15.478,2.3-35.55,6-51,4.051-16.9,2.207-34.169,6-50q0.5-8.5,1-17c4.143-17.806,3.662-39.525,8-57l3-30c7.055-29.676,9.675-57.474,24-79,17-25.539,55.822-33.548,86-46,10.459-4.316,24.122-4.674,33-11,3.753-5.947-.278-16.485,2-25,4.363-16.311,11.355-39.22,20-52,9.729-14.382,35.178-20.861,54-26C372.907,52.568,379.37,56.2,386,52Z"/>
</svg>
