<svg xmlns="http://www.w3.org/2000/svg" viewBox="0 0 60 60"><defs><style>.cls-1{fill:none;stroke:#e2482c;stroke-miterlimit:10;stroke-width:2px;}.cls-2{fill:#e2482c;}</style></defs><g id="Слой_2" data-name="Слой 2"><g id="_2" data-name="2"><circle class="cls-1" cx="30" cy="30" r="29"/><path class="cls-2" d="M47.83,26.57a2.76,2.76,0,0,0-1.94-.66l-21.58.18,9.18-8.84a2.67,2.67,0,0,0,0-3.77l-1.66-1.62A3,3,0,0,0,30,11.35a3.08,3.08,0,0,0-1.89.79Q20.22,20,12.31,27.94a2.65,2.65,0,0,0-.68,1.51A2.57,2.57,0,0,0,12,31.1L28.38,47.44a2.2,2.2,0,0,0,1.48.66,2.81,2.81,0,0,0,1.85-.62L34,45.22a2.83,2.83,0,0,0,.27-1.37,2.88,2.88,0,0,0-.75-1.72l-9-8.56,21.61-.13a2.88,2.88,0,0,0,1.56-.7,3,3,0,0,0,1-1.78l.07-2.53A2.73,2.73,0,0,0,47.83,26.57Z"/></g></g></svg>