<svg xmlns="http://www.w3.org/2000/svg" viewBox="0 0 67.21 59.04"><defs><style>.cls-1{fill:#e2482c;}</style></defs><g id="Слой_2" data-name="Слой 2"><g id="_3" data-name="3"><path class="cls-1" d="M46.82,35.36,32.08,49.55a4.42,4.42,0,0,0-1.22,3.1,4.36,4.36,0,0,0,1.28,3l2.67,2.6a4.73,4.73,0,0,0,2.87.82,4.89,4.89,0,0,0,3-1.27Q53.4,45.07,66.09,32.39a4.1,4.1,0,0,0,.44-5.07L40.29,1.07A3.5,3.5,0,0,0,37.9,0a4.54,4.54,0,0,0-3,1L31.3,4.64a4.3,4.3,0,0,0-.44,2.2,4.48,4.48,0,0,0,1.21,2.75L46.49,23.35,52.81,29Q49.83,32.21,46.82,35.36Z"/><path class="cls-1" d="M16,35.36,1.24,49.55a4.27,4.27,0,0,0,.06,6.06L4,58.21A4.74,4.74,0,0,0,6.84,59a4.85,4.85,0,0,0,3-1.27L35.24,32.39A4.12,4.12,0,0,0,36.35,30a4.17,4.17,0,0,0-.66-2.64L9.44,1.07A3.48,3.48,0,0,0,7.06,0a4.57,4.57,0,0,0-3,1L.45,4.64A4.3,4.3,0,0,0,0,6.84,4.48,4.48,0,0,0,1.22,9.59L15.65,23.35,22,29Q19,32.21,16,35.36Z"/></g></g></svg>