<svg id="футболка_длинная_ж_перед_Изображение" data-name="футболка  длинная ж перед Изображение" xmlns="http://www.w3.org/2000/svg" viewBox="0 0 307.7 169.06"><path d="M432.84,56.09c-4.49.19-6.23.83-10.28.94-.41,0-1,0-1.85.09-1.51.14-2.64.4-4.06.62-11.88.77-36.69.17-50.83-.65-10.33-.6-18.53-1.37-22.76-1.77-10.28-1-10-1.06-22.5-2.47-11-1.24-28.53-3.27-41.21.44-.76.23-2.74.91-4.06,1.24a104.66,104.66,0,0,0-16.76,5.65c-3.35,1.45-6.4,3-9.17,4.51-3.79.87-9.61,2.88-13.42,8-2.79,3.75-3.53,7.86-3.88,21.35-.33,12.65-.5,19,0,22.94,2.32,18.48,10.69,31.69,17.8,42.94,4.17,6.58,8.54,13.47,15.38,20.41,13.29,13.49,27.92,18.53,48.17,25.59a225.31,225.31,0,0,0,36,9.71c19.62,3.55,68.9,11.84,122-9.57,19.43-7.83,36.19-14.59,49.39-32.29,15.31-20.51,17.31-44.31,18.3-56a100.87,100.87,0,0,0-1.86-29s-2.66-12.44-7.88-20a58.57,58.57,0,0,0-5.19-6.42l-2.25-2.28a43.53,43.53,0,0,0-4.44-1.79,42.77,42.77,0,0,0-7.5-1.8c-2.22-.66-4.6-1.29-7.12-1.86-2.92-.66-5.71-1.17-8.32-1.55a299.56,299.56,0,0,0-30.37,0c-6,.33-9,.57-11.35.89-6.14.82-10.43,1.13-17,2C434.7,56.06,434.17,56,432.84,56.09Zm89.22,53.2c-.44,11.19-.79,20.41-5.06,32.06a43.65,43.65,0,0,1-4,9.51,78.47,78.47,0,0,1-9.3,14,59.3,59.3,0,0,1-21.59,17.92c-8.12,4.81-25.07,13.2-56,18-17.05,2.61-46.9,6.88-83.9-1.35-11.84-2.63-26.54-6-43.45-15.86-10.1-5.88-25-14.82-36.32-32.83a87.07,87.07,0,0,1-12.05-31.59,91.62,91.62,0,0,1-.26-26.24,94.22,94.22,0,0,1,6.69-24.63,108.46,108.46,0,0,1,27.85-6c10.95-.88,18.37.22,37.91,2.42,18.31,2,27.47,3.08,34.91,3.62a336.2,336.2,0,0,0,61.85-.54c9.62-1,30.35-3.85,31.59-4,14.15-1.91,19.38-2.76,28.1-2.5a121.21,121.21,0,0,1,23,2.94c3.82.87,7,1.8,9.41,2.56,1.17,1.73,2.66,3.86,4.09,6.42a57.74,57.74,0,0,1,3.73,9C522.62,92.8,522.1,108.21,522.06,109.29Z" transform="translate(-231.74 -51.17)"/></svg>