<?xml version="1.0" encoding="utf-8"?>
<!-- Generator: Adobe Illustrator 21.0.0, SVG Export Plug-In . SVG Version: 6.00 Build 0)  -->
<svg version="1.1" id="футболка__длинная_ж_перед_xA0_Изображение_1_"
	 xmlns="http://www.w3.org/2000/svg" xmlns:xlink="http://www.w3.org/1999/xlink" x="0px" y="0px" viewBox="0 0 800 907"
	 style="enable-background:new 0 0 800 907;" xml:space="preserve">
<path d="M536.9,88.7c-3.1-12.1-8.7-21-12.7-26.3c-9.9-2.8-19.8-5.7-29.7-8.5c-7-0.7-17.5-1.4-30.3-0.8c-14.3,0.7-23.9,2.7-30.5,3.8
	c-33.6,5.7-65.8,2.1-90.9-0.8c-11-1.2-20.4-2.8-36.1-3c-13.3-0.2-24.2,0.5-31.4,1.2c-9.6,3.8-19.2,7.6-28.8,11.4
	c-2,1.6-4.8,4.1-7.3,7.9c-1.2,1.9-4.2,6.8-5.7,17.3c-1.4,9.8-0.6,17.8,0,22.1c1.3,9.4,3.9,27.7,16.3,46.8c9,13.8,19.4,21.6,24,25.1
	c35.9,27.4,119.6,51.2,197.6,21c31.9-12.3,43.8-26.3,48.8-33.1c15.4-20.9,17.5-44.8,18.4-55.5C540,101.7,537.7,92,536.9,88.7z
	 M523.5,109.2c-0.1,9.3-0.3,19.5-4.6,32.1c-1.8,5.2-5.1,14.7-13.1,24.4c-5.7,6.8-12.5,12.2-22.5,17.7c-10.3,5.6-27.3,13.1-57.2,17.4
	c-19.1,2.8-48,6.6-83.9-1.3c-11.8-2.6-26.5-6-43.4-15.9c-10.1-5.9-25-14.8-36.3-32.8c-8.6-13.7-11.2-26.6-12-31.6
	c-0.4-2.7-2-12.9-0.3-26.2c1.4-10.4,4.2-18.8,6.7-24.6c6.1-2.2,15.8-5.1,27.9-6c10.9-0.9,18.4,0.2,37.9,2.4
	c18.3,2.1,27.5,3.1,34.9,3.6c11.8,0.9,34.3,2.4,61.8-0.5c3.7-0.4,16.1-1.8,31.6-4c15.5-2.2,19.6-3.2,28.1-2.9
	c10.4,0.3,21.7,2.3,23.8,2.7c3.8,0.7,6.9,1.4,9.1,1.9c2.5,3.6,5.9,9.1,8.3,16.3C523.6,91.6,523.6,99.7,523.5,109.2z"/>
</svg>
