<?xml version="1.0" encoding="utf-8"?>
<!-- Generator: Adobe Illustrator 21.0.0, SVG Export Plug-In . SVG Version: 6.00 Build 0)  -->
<svg version="1.1" id="футболка_длинная_перед_xA0_Изображение_1_"
	 xmlns="http://www.w3.org/2000/svg" xmlns:xlink="http://www.w3.org/1999/xlink" x="0px" y="0px" viewBox="0 0 800 907"
	 style="enable-background:new 0 0 800 907;" xml:space="preserve">
<path d="M534.3,59.7c-3.2-1.5-6.1-2.4-8.4-2.9c-2.8-0.5-5.8-0.9-8.9-1.2c-6.9-0.7-13.2-0.7-18.7-0.3c-6,1.1-14.5,2.5-24.7,3.6
	c-18.9,2.2-32.9,2.4-51.6,2.7c-18.3,0.2-33,0.4-52.8-1.1c-3.5-0.3-12.7-1.2-31-2.9c-12.2-1.2-22.3-2.2-29-2.8
	c-3.4,1.3-6.8,2.7-10.2,4c-2.9,1.2-5.8,2.3-8.7,3.5c0.5,2.6,1.4,6.3,2.9,10.6c5.1,14.2,13.6,23.1,20.2,29.9
	c4,4.1,11.6,11.9,23.8,18.9c18.4,10.6,35.4,12.7,49.6,14.5c9.8,1.2,17.4,1.3,25.1,1.3c18.9,0.2,33.2-1.6,38.4-2.3
	c10.8-1.5,20.4-2.8,32.8-6.9c11.8-3.9,21.9-7.2,32.4-15.9c9.9-8.3,15.3-17.3,18.4-22.8c5.2-9,8.1-17.3,9.8-23.3
	C541.5,64.1,538.4,61.7,534.3,59.7z M508.9,93.4c-9.4,10.2-19.7,14.5-27.8,17.8c-6.1,2.5-16.5,6-39.9,7.8
	c-22.4,1.7-41.5,3.1-66.2-2.7c-13.9-3.3-30.8-7.5-44.6-20.1c-3.4-3.1-9.6-9.4-15.7-18.2c-4.4-6.4-7.4-12.2-9.4-16.7
	c17.4,5,32.8,7.9,45.3,9.8c36.9,5.5,63.5,3.5,115.7-0.5c10.2-0.8,25.5-2.1,44.7-7.1c6-1.5,10.9-3,14.1-4.1
	C524,66.3,520.7,80.7,508.9,93.4z"/>
</svg>
